# 3ds Max Wavefront OBJ Exporter v0.97b - (c)2007 guruware
# File Created: 18.03.2018 17:19:20

mtllib right leg.mtl

#
# object Blake_right_leg_up_right_leg
#

v  0.0338 -2.3783 0.0421
v  0.0540 -2.3784 0.0274
v  0.1019 -2.3645 0.0753
v  0.0645 -2.3644 0.1024
v  0.0687 -2.3784 0.0072
v  0.1290 -2.3646 0.0380
v  0.0765 -2.3785 -0.0165
v  0.1433 -2.3647 -0.0059
v  0.0765 -2.3786 -0.0415
v  0.1433 -2.3649 -0.0521
v  0.0688 -2.3787 -0.0653
v  0.1291 -2.3650 -0.0960
v  0.0541 -2.3787 -0.0855
v  0.1020 -2.3652 -0.1334
v  0.0339 -2.3788 -0.1002
v  0.0647 -2.3653 -0.1606
v  0.0101 -2.3788 -0.1080
v  0.0207 -2.3653 -0.1749
v  -0.0149 -2.3788 -0.1080
v  -0.0254 -2.3653 -0.1749
v  -0.0387 -2.3788 -0.1003
v  -0.0694 -2.3653 -0.1607
v  -0.0589 -2.3788 -0.0856
v  -0.1067 -2.3653 -0.1336
v  -0.0736 -2.3787 -0.0654
v  -0.1339 -2.3652 -0.0962
v  -0.0813 -2.3787 -0.0416
v  -0.1482 -2.3650 -0.0523
v  -0.0813 -2.3786 -0.0166
v  -0.1482 -2.3649 -0.0061
v  -0.0736 -2.3785 0.0071
v  -0.1340 -2.3647 0.0378
v  -0.0589 -2.3784 0.0274
v  -0.1069 -2.3646 0.0752
v  -0.0387 -2.3784 0.0421
v  -0.0695 -2.3645 0.1023
v  -0.0150 -2.3783 0.0498
v  -0.0256 -2.3644 0.1166
v  0.0100 -2.3783 0.0498
v  0.0206 -2.3644 0.1167
v  0.1338 -2.3439 0.1073
v  0.0849 -2.3438 0.1427
v  0.1693 -2.3440 0.0585
v  0.1880 -2.3442 0.0012
v  0.1880 -2.3444 -0.0591
v  0.1695 -2.3445 -0.1165
v  0.1340 -2.3447 -0.1654
v  0.0853 -2.3449 -0.2009
v  0.0279 -2.3449 -0.2196
v  -0.0325 -2.3450 -0.2197
v  -0.0899 -2.3449 -0.2011
v  -0.1387 -2.3449 -0.1656
v  -0.1742 -2.3447 -0.1169
v  -0.1929 -2.3445 -0.0595
v  -0.1929 -2.3444 0.0008
v  -0.1743 -2.3442 0.0582
v  -0.1389 -2.3440 0.1071
v  -0.0901 -2.3439 0.1426
v  -0.0328 -2.3438 0.1612
v  0.0276 -2.3437 0.1613
v  0.1449 -2.2285 0.1182
v  0.0921 -2.2284 0.1565
v  0.1833 -2.2287 0.0654
v  0.2036 -2.2289 0.0034
v  0.2037 -2.2291 -0.0619
v  0.1836 -2.2293 -0.1241
v  0.1453 -2.2295 -0.1770
v  0.0925 -2.2296 -0.2154
v  0.0304 -2.2297 -0.2357
v  -0.0350 -2.2297 -0.2357
v  -0.0971 -2.2297 -0.2156
v  -0.1500 -2.2296 -0.1773
v  -0.1884 -2.2295 -0.1245
v  -0.2086 -2.2293 -0.0624
v  -0.2087 -2.2291 0.0029
v  -0.1886 -2.2289 0.0651
v  -0.1502 -2.2287 0.1179
v  -0.0974 -2.2285 0.1563
v  -0.0353 -2.2284 0.1766
v  0.0300 -2.2284 0.1766
v  0.1430 -0.2285 0.1128
v  0.0899 -0.2284 0.1508
v  0.1817 -0.2287 0.0603
v  0.2024 -0.2289 -0.0016
v  0.2029 -0.2291 -0.0669
v  0.1832 -0.2293 -0.1291
v  0.1452 -0.2295 -0.1822
v  0.0927 -0.2296 -0.2210
v  0.0308 -0.2297 -0.2416
v  -0.0345 -0.2297 -0.2421
v  -0.0967 -0.2297 -0.2224
v  -0.1498 -0.2296 -0.1845
v  -0.1886 -0.2295 -0.1320
v  -0.2092 -0.2293 -0.0700
v  -0.2097 -0.2291 -0.0048
v  -0.1900 -0.2289 0.0575
v  -0.1521 -0.2287 0.1106
v  -0.0995 -0.2285 0.1493
v  -0.0376 -0.2284 0.1700
v  0.0276 -0.2284 0.1705
v  0.1318 -0.1427 0.1012
v  0.0827 -0.1426 0.1363
v  0.1676 -0.1428 0.0527
v  0.1867 -0.1430 -0.0045
v  0.1871 -0.1432 -0.0648
v  0.1689 -0.1434 -0.1223
v  0.1338 -0.1435 -0.1714
v  0.0853 -0.1437 -0.2072
v  0.0281 -0.1438 -0.2262
v  -0.0322 -0.1438 -0.2267
v  -0.0897 -0.1438 -0.2085
v  -0.1387 -0.1437 -0.1734
v  -0.1745 -0.1435 -0.1249
v  -0.1936 -0.1434 -0.0677
v  -0.1941 -0.1432 -0.0074
v  -0.1759 -0.1430 0.0501
v  -0.1408 -0.1428 0.0991
v  -0.0923 -0.1427 0.1350
v  -0.0351 -0.1426 0.1540
v  0.0252 -0.1426 0.1545
v  0.1000 -0.0914 0.0688
v  0.0625 -0.0913 0.0957
v  0.1274 -0.0915 0.0317
v  0.1420 -0.0916 -0.0121
v  0.1424 -0.0918 -0.0582
v  0.1284 -0.0919 -0.1022
v  0.1016 -0.0920 -0.1398
v  0.0645 -0.0921 -0.1672
v  0.0207 -0.0922 -0.1818
v  -0.0255 -0.0922 -0.1821
v  -0.0695 -0.0922 -0.1682
v  -0.1070 -0.0921 -0.1414
v  -0.1344 -0.0920 -0.1042
v  -0.1490 -0.0919 -0.0605
v  -0.1494 -0.0918 -0.0143
v  -0.1354 -0.0916 0.0297
v  -0.1086 -0.0915 0.0672
v  -0.0715 -0.0914 0.0947
v  -0.0277 -0.0913 0.1092
v  0.0185 -0.0913 0.1096
v  0.0525 -0.0572 0.0205
v  0.0322 -0.0572 0.0350
v  0.0673 -0.0573 0.0004
v  0.0752 -0.0573 -0.0233
v  0.0754 -0.0574 -0.0483
v  0.0679 -0.0575 -0.0721
v  0.0534 -0.0576 -0.0924
v  0.0333 -0.0576 -0.1072
v  0.0096 -0.0577 -0.1151
v  -0.0154 -0.0577 -0.1153
v  -0.0392 -0.0577 -0.1078
v  -0.0595 -0.0576 -0.0933
v  -0.0744 -0.0576 -0.0732
v  -0.0823 -0.0575 -0.0495
v  -0.0825 -0.0574 -0.0245
v  -0.0749 -0.0573 -0.0007
v  -0.0604 -0.0573 0.0196
v  -0.0403 -0.0572 0.0345
v  -0.0166 -0.0572 0.0424
v  0.0084 -0.0572 0.0426
v  -0.0024 -2.3834 -0.0291
v  -0.0035 -0.0453 -0.0364
# 162 vertices

vn 0.0749 -0.9859 0.1494
vn 0.1165 -0.9860 0.1193
vn 0.2279 -0.9460 0.2307
vn 0.1464 -0.9458 0.2898
vn 0.1467 -0.9861 0.0777
vn 0.2871 -0.9462 0.1493
vn 0.1626 -0.9863 0.0289
vn 0.3183 -0.9465 0.0536
vn 0.1627 -0.9864 -0.0225
vn 0.3184 -0.9468 -0.0471
vn 0.1468 -0.9866 -0.0713
vn 0.2873 -0.9471 -0.1429
vn 0.1167 -0.9867 -0.1129
vn 0.2282 -0.9474 -0.2244
vn 0.0751 -0.9869 -0.1431
vn 0.1468 -0.9476 -0.2837
vn 0.0263 -0.9869 -0.1590
vn 0.0510 -0.9478 -0.3149
vn -0.0251 -0.9869 -0.1591
vn -0.0497 -0.9478 -0.3149
vn -0.0740 -0.9869 -0.1432
vn -0.1454 -0.9478 -0.2839
vn -0.1155 -0.9869 -0.1131
vn -0.2270 -0.9476 -0.2247
vn -0.1458 -0.9867 -0.0715
vn -0.2862 -0.9474 -0.1433
vn -0.1617 -0.9866 -0.0227
vn -0.3174 -0.9471 -0.0476
vn -0.1617 -0.9864 0.0287
vn -0.3174 -0.9468 0.0531
vn -0.1458 -0.9863 0.0776
vn -0.2864 -0.9465 0.1489
vn -0.1157 -0.9861 0.1191
vn -0.2272 -0.9462 0.2304
vn -0.0741 -0.9860 0.1493
vn -0.1458 -0.9460 0.2896
vn -0.0253 -0.9859 0.1652
vn -0.0501 -0.9458 0.3208
vn 0.0261 -0.9859 0.1653
vn 0.0506 -0.9458 0.3209
vn 0.6596 -0.3562 0.6618
vn 0.4232 -0.3558 0.8332
vn 0.8315 -0.3569 0.4258
vn 0.9220 -0.3577 0.1482
vn 0.9223 -0.3586 -0.1438
vn 0.8324 -0.3595 -0.4217
vn 0.6610 -0.3603 -0.6582
vn 0.4248 -0.3610 -0.8302
vn 0.1471 -0.3614 -0.9207
vn -0.1450 -0.3616 -0.9210
vn -0.4229 -0.3614 -0.8310
vn -0.6594 -0.3610 -0.6595
vn -0.8312 -0.3604 -0.4233
vn -0.9217 -0.3595 -0.1455
vn -0.9219 -0.3586 0.1465
vn -0.8319 -0.3577 0.4243
vn -0.6604 -0.3569 0.6607
vn -0.4242 -0.3562 0.8325
vn -0.1466 -0.3558 0.9230
vn 0.1454 -0.3557 0.9232
vn 0.7042 -0.0045 0.7100
vn 0.4504 -0.0041 0.8928
vn 0.8891 -0.0052 0.4577
vn 0.9870 -0.0061 0.1606
vn 0.9883 -0.0071 -0.1522
vn 0.8929 -0.0081 -0.4502
vn 0.7100 -0.0090 -0.7041
vn 0.4577 -0.0097 -0.8891
vn 0.1605 -0.0101 -0.9870
vn -0.1524 -0.0103 -0.9883
vn -0.4504 -0.0101 -0.8928
vn -0.7043 -0.0097 -0.7099
vn -0.8892 -0.0089 -0.4574
vn -0.9870 -0.0081 -0.1603
vn -0.9883 -0.0071 0.1526
vn -0.8928 -0.0061 0.4505
vn -0.7099 -0.0052 0.7043
vn -0.4575 -0.0045 0.8892
vn -0.1603 -0.0041 0.9871
vn 0.1525 -0.0039 0.9883
vn 0.7039 0.0098 0.7103
vn 0.4500 0.0103 0.8930
vn 0.8889 0.0091 0.4580
vn 0.9869 0.0082 0.1609
vn 0.9884 0.0072 -0.1519
vn 0.8931 0.0063 -0.4498
vn 0.7103 0.0054 -0.7038
vn 0.4580 0.0047 -0.8889
vn 0.1609 0.0042 -0.9870
vn -0.1520 0.0041 -0.9884
vn -0.4500 0.0042 -0.8930
vn -0.7040 0.0047 -0.7102
vn -0.8890 0.0054 -0.4579
vn -0.9870 0.0063 -0.1607
vn -0.9883 0.0073 0.1521
vn -0.8930 0.0083 0.4500
vn -0.7102 0.0091 0.7040
vn -0.4579 0.0098 0.8890
vn -0.1608 0.0103 0.9869
vn 0.1521 0.0104 0.9883
vn 0.6501 0.3782 0.6590
vn 0.4143 0.3786 0.8277
vn 0.8223 0.3776 0.4258
vn 0.9140 0.3767 0.1507
vn 0.9162 0.3758 -0.1392
vn 0.8287 0.3749 -0.4156
vn 0.6600 0.3741 -0.6515
vn 0.4268 0.3734 -0.8236
vn 0.1517 0.3730 -0.9153
vn -0.1382 0.3729 -0.9175
vn -0.4146 0.3730 -0.8300
vn -0.6505 0.3734 -0.6614
vn -0.8226 0.3741 -0.4281
vn -0.9143 0.3749 -0.1531
vn -0.9165 0.3758 0.1368
vn -0.8290 0.3767 0.4132
vn -0.6604 0.3776 0.6491
vn -0.4271 0.3782 0.8213
vn -0.1521 0.3786 0.9130
vn 0.1378 0.3788 0.9152
vn 0.4532 0.7648 0.4580
vn 0.2887 0.7650 0.5756
vn 0.5733 0.7643 0.2954
vn 0.6372 0.7637 0.1035
vn 0.6387 0.7631 -0.0987
vn 0.5777 0.7624 -0.2914
vn 0.4601 0.7619 -0.4559
vn 0.2974 0.7614 -0.5760
vn 0.1056 0.7611 -0.6400
vn -0.0966 0.7610 -0.6415
vn -0.2894 0.7611 -0.5805
vn -0.4539 0.7614 -0.4629
vn -0.5740 0.7619 -0.3002
vn -0.6379 0.7624 -0.1083
vn -0.6394 0.7631 0.0938
vn -0.5784 0.7637 0.2866
vn -0.4608 0.7643 0.4511
vn -0.2981 0.7647 0.5712
vn -0.1063 0.7650 0.6351
vn 0.0959 0.7651 0.6367
vn 0.2694 0.9241 0.2711
vn 0.1716 0.9243 0.3411
vn 0.3409 0.9238 0.1743
vn 0.3789 0.9235 0.0601
vn 0.3799 0.9231 -0.0602
vn 0.3436 0.9227 -0.1749
vn 0.2736 0.9224 -0.2728
vn 0.1768 0.9221 -0.3442
vn 0.0626 0.9219 -0.3823
vn -0.0577 0.9219 -0.3832
vn -0.1724 0.9219 -0.3469
vn -0.2703 0.9221 -0.2769
vn -0.3418 0.9224 -0.1801
vn -0.3798 0.9227 -0.0659
vn -0.3807 0.9231 0.0544
vn -0.3444 0.9235 0.1691
vn -0.2744 0.9238 0.2670
vn -0.1776 0.9241 0.3384
vn -0.0635 0.9243 0.3765
vn 0.0569 0.9243 0.3774
vn 0.0005 -1.0000 0.0032
vn -0.0005 1.0000 -0.0031
# 162 vertex normals

vt 0.5675 0.5591 0.0000
vt 0.5579 0.6125 0.0000
vt 0.6039 0.7078 0.0000
vt 0.6215 0.6093 0.0000
vt 0.5431 0.6548 0.0000
vt 0.5765 0.7860 0.0000
vt 0.5244 0.6820 0.0000
vt 0.5420 0.8362 0.0000
vt 0.5037 0.6913 0.0000
vt 0.5038 0.8536 0.0000
vt 0.4830 0.6820 0.0000
vt 0.4655 0.8362 0.0000
vt 0.4644 0.6548 0.0000
vt 0.4310 0.7860 0.0000
vt 0.4496 0.6125 0.0000
vt 0.4036 0.7078 0.0000
vt 0.4400 0.5591 0.0000
vt 0.3860 0.6093 0.0000
vt 0.4368 0.5000 0.0000
vt 0.3800 0.5000 0.0000
vt 0.4400 0.4409 0.0000
vt 0.3860 0.3907 0.0000
vt 0.4496 0.3875 0.0000
vt 0.4036 0.2922 0.0000
vt 0.4644 0.3452 0.0000
vt 0.4310 0.2140 0.0000
vt 0.4830 0.3180 0.0000
vt 0.4655 0.1638 0.0000
vt 0.5037 0.3087 0.0000
vt 0.5038 0.1464 0.0000
vt 0.5244 0.3180 0.0000
vt 0.5420 0.1638 0.0000
vt 0.5431 0.3452 0.0000
vt 0.5765 0.2140 0.0000
vt 0.5579 0.3875 0.0000
vt 0.6039 0.2922 0.0000
vt 0.5675 0.4409 0.0000
vt 0.6215 0.3907 0.0000
vt 0.5707 0.5000 0.0000
vt 0.6275 0.5000 0.0000
vt 0.6346 0.7715 0.0000
vt 0.6576 0.6427 0.0000
vt 0.5989 0.8737 0.0000
vt 0.5538 0.9393 0.0000
vt 0.5038 0.9619 0.0000
vt 0.4538 0.9393 0.0000
vt 0.4087 0.8737 0.0000
vt 0.3730 0.7715 0.0000
vt 0.3500 0.6427 0.0000
vt 0.3421 0.5000 0.0000
vt 0.3500 0.3573 0.0000
vt 0.3730 0.2285 0.0000
vt 0.4087 0.1263 0.0000
vt 0.4538 0.0607 0.0000
vt 0.5038 0.0381 0.0000
vt 0.5538 0.0607 0.0000
vt 0.5989 0.1263 0.0000
vt 0.6346 0.2285 0.0000
vt 0.6576 0.3573 0.0000
vt 0.6655 0.5000 0.0000
vt 0.6456 0.7939 0.0000
vt 0.6705 0.6545 0.0000
vt 0.6069 0.9045 0.0000
vt 0.5581 0.9755 0.0000
vt 0.5040 1.0000 0.0000
vt 0.4499 0.9755 0.0000
vt 0.4011 0.9045 0.0000
vt 0.3624 0.7939 0.0000
vt 0.3375 0.6545 0.0000
vt 0.3289 0.5000 0.0000
vt 0.3375 0.3455 0.0000
vt 0.3624 0.2061 0.0000
vt 0.4011 0.0955 0.0000
vt 0.4499 0.0245 0.0000
vt 0.5040 0.0000 0.0000
vt 0.5581 0.0245 0.0000
vt 0.6069 0.0955 0.0000
vt 0.6456 0.2061 0.0000
vt 0.6705 0.3455 0.0000
vt 0.6790 0.5000 0.0000
vt 0.6487 0.7939 0.0000
vt 0.6735 0.6545 0.0000
vt 0.6099 0.9045 0.0000
vt 0.5611 0.9755 0.0000
vt 0.5071 1.0000 0.0000
vt 0.4530 0.9755 0.0000
vt 0.4042 0.9045 0.0000
vt 0.3654 0.7939 0.0000
vt 0.3406 0.6545 0.0000
vt 0.3320 0.5000 0.0000
vt 0.3406 0.3455 0.0000
vt 0.3654 0.2061 0.0000
vt 0.4042 0.0955 0.0000
vt 0.4530 0.0245 0.0000
vt 0.5071 0.0000 0.0000
vt 0.5611 0.0245 0.0000
vt 0.6099 0.0955 0.0000
vt 0.6487 0.2061 0.0000
vt 0.6735 0.3455 0.0000
vt 0.6821 0.5000 0.0000
vt 0.6380 0.7715 0.0000
vt 0.6610 0.6427 0.0000
vt 0.6022 0.8737 0.0000
vt 0.5572 0.9393 0.0000
vt 0.5072 0.9619 0.0000
vt 0.4572 0.9393 0.0000
vt 0.4121 0.8737 0.0000
vt 0.3763 0.7715 0.0000
vt 0.3534 0.6427 0.0000
vt 0.3455 0.5000 0.0000
vt 0.3534 0.3573 0.0000
vt 0.3763 0.2285 0.0000
vt 0.4121 0.1263 0.0000
vt 0.4572 0.0607 0.0000
vt 0.5072 0.0381 0.0000
vt 0.5572 0.0607 0.0000
vt 0.6022 0.1263 0.0000
vt 0.6380 0.2285 0.0000
vt 0.6610 0.3573 0.0000
vt 0.6689 0.5000 0.0000
vt 0.6074 0.7078 0.0000
vt 0.6250 0.6093 0.0000
vt 0.5800 0.7860 0.0000
vt 0.5455 0.8362 0.0000
vt 0.5073 0.8536 0.0000
vt 0.4690 0.8362 0.0000
vt 0.4345 0.7860 0.0000
vt 0.4071 0.7078 0.0000
vt 0.3895 0.6093 0.0000
vt 0.3835 0.5000 0.0000
vt 0.3895 0.3907 0.0000
vt 0.4071 0.2922 0.0000
vt 0.4345 0.2140 0.0000
vt 0.4690 0.1638 0.0000
vt 0.5073 0.1464 0.0000
vt 0.5455 0.1638 0.0000
vt 0.5800 0.2140 0.0000
vt 0.6074 0.2922 0.0000
vt 0.6250 0.3907 0.0000
vt 0.6310 0.5000 0.0000
vt 0.5615 0.6125 0.0000
vt 0.5710 0.5591 0.0000
vt 0.5467 0.6548 0.0000
vt 0.5280 0.6820 0.0000
vt 0.5073 0.6913 0.0000
vt 0.4866 0.6820 0.0000
vt 0.4679 0.6548 0.0000
vt 0.4531 0.6125 0.0000
vt 0.4436 0.5591 0.0000
vt 0.4403 0.5000 0.0000
vt 0.4436 0.4409 0.0000
vt 0.4531 0.3875 0.0000
vt 0.4679 0.3452 0.0000
vt 0.4866 0.3180 0.0000
vt 0.5073 0.3087 0.0000
vt 0.5280 0.3180 0.0000
vt 0.5467 0.3452 0.0000
vt 0.5615 0.3875 0.0000
vt 0.5710 0.4409 0.0000
vt 0.5743 0.5000 0.0000
vt 0.5037 0.5000 0.0000
vt 0.5073 0.5000 0.0000
# 162 texture coords

o Blake_right_leg_up_right_leg
g Blake_right_leg_up_right_leg
usemtl lambert19SG
s 1
f 1/1/1 2/2/2 3/3/3 4/4/4 
f 2/2/2 5/5/5 6/6/6 3/3/3 
f 5/5/5 7/7/7 8/8/8 6/6/6 
f 7/7/7 9/9/9 10/10/10 8/8/8 
f 9/9/9 11/11/11 12/12/12 10/10/10 
f 11/11/11 13/13/13 14/14/14 12/12/12 
f 13/13/13 15/15/15 16/16/16 14/14/14 
f 15/15/15 17/17/17 18/18/18 16/16/16 
f 17/17/17 19/19/19 20/20/20 18/18/18 
f 19/19/19 21/21/21 22/22/22 20/20/20 
f 21/21/21 23/23/23 24/24/24 22/22/22 
f 23/23/23 25/25/25 26/26/26 24/24/24 
f 25/25/25 27/27/27 28/28/28 26/26/26 
f 27/27/27 29/29/29 30/30/30 28/28/28 
f 29/29/29 31/31/31 32/32/32 30/30/30 
f 31/31/31 33/33/33 34/34/34 32/32/32 
f 33/33/33 35/35/35 36/36/36 34/34/34 
f 35/35/35 37/37/37 38/38/38 36/36/36 
f 37/37/37 39/39/39 40/40/40 38/38/38 
f 39/39/39 1/1/1 4/4/4 40/40/40 
f 4/4/4 3/3/3 41/41/41 42/42/42 
f 3/3/3 6/6/6 43/43/43 41/41/41 
f 6/6/6 8/8/8 44/44/44 43/43/43 
f 8/8/8 10/10/10 45/45/45 44/44/44 
f 10/10/10 12/12/12 46/46/46 45/45/45 
f 12/12/12 14/14/14 47/47/47 46/46/46 
f 14/14/14 16/16/16 48/48/48 47/47/47 
f 16/16/16 18/18/18 49/49/49 48/48/48 
f 18/18/18 20/20/20 50/50/50 49/49/49 
f 20/20/20 22/22/22 51/51/51 50/50/50 
f 22/22/22 24/24/24 52/52/52 51/51/51 
f 24/24/24 26/26/26 53/53/53 52/52/52 
f 26/26/26 28/28/28 54/54/54 53/53/53 
f 28/28/28 30/30/30 55/55/55 54/54/54 
f 30/30/30 32/32/32 56/56/56 55/55/55 
f 32/32/32 34/34/34 57/57/57 56/56/56 
f 34/34/34 36/36/36 58/58/58 57/57/57 
f 36/36/36 38/38/38 59/59/59 58/58/58 
f 38/38/38 40/40/40 60/60/60 59/59/59 
f 40/40/40 4/4/4 42/42/42 60/60/60 
f 42/42/42 41/41/41 61/61/61 62/62/62 
f 41/41/41 43/43/43 63/63/63 61/61/61 
f 43/43/43 44/44/44 64/64/64 63/63/63 
f 44/44/44 45/45/45 65/65/65 64/64/64 
f 45/45/45 46/46/46 66/66/66 65/65/65 
f 46/46/46 47/47/47 67/67/67 66/66/66 
f 47/47/47 48/48/48 68/68/68 67/67/67 
f 48/48/48 49/49/49 69/69/69 68/68/68 
f 49/49/49 50/50/50 70/70/70 69/69/69 
f 50/50/50 51/51/51 71/71/71 70/70/70 
f 51/51/51 52/52/52 72/72/72 71/71/71 
f 52/52/52 53/53/53 73/73/73 72/72/72 
f 53/53/53 54/54/54 74/74/74 73/73/73 
f 54/54/54 55/55/55 75/75/75 74/74/74 
f 55/55/55 56/56/56 76/76/76 75/75/75 
f 56/56/56 57/57/57 77/77/77 76/76/76 
f 57/57/57 58/58/58 78/78/78 77/77/77 
f 58/58/58 59/59/59 79/79/79 78/78/78 
f 59/59/59 60/60/60 80/80/80 79/79/79 
f 60/60/60 42/42/42 62/62/62 80/80/80 
f 62/62/62 61/61/61 81/81/81 82/82/82 
f 61/61/61 63/63/63 83/83/83 81/81/81 
f 63/63/63 64/64/64 84/84/84 83/83/83 
f 64/64/64 65/65/65 85/85/85 84/84/84 
f 65/65/65 66/66/66 86/86/86 85/85/85 
f 66/66/66 67/67/67 87/87/87 86/86/86 
f 67/67/67 68/68/68 88/88/88 87/87/87 
f 68/68/68 69/69/69 89/89/89 88/88/88 
f 69/69/69 70/70/70 90/90/90 89/89/89 
f 70/70/70 71/71/71 91/91/91 90/90/90 
f 71/71/71 72/72/72 92/92/92 91/91/91 
f 72/72/72 73/73/73 93/93/93 92/92/92 
f 73/73/73 74/74/74 94/94/94 93/93/93 
f 74/74/74 75/75/75 95/95/95 94/94/94 
f 75/75/75 76/76/76 96/96/96 95/95/95 
f 76/76/76 77/77/77 97/97/97 96/96/96 
f 77/77/77 78/78/78 98/98/98 97/97/97 
f 78/78/78 79/79/79 99/99/99 98/98/98 
f 79/79/79 80/80/80 100/100/100 99/99/99 
f 80/80/80 62/62/62 82/82/82 100/100/100 
f 82/82/82 81/81/81 101/101/101 102/102/102 
f 81/81/81 83/83/83 103/103/103 101/101/101 
f 83/83/83 84/84/84 104/104/104 103/103/103 
f 84/84/84 85/85/85 105/105/105 104/104/104 
f 85/85/85 86/86/86 106/106/106 105/105/105 
f 86/86/86 87/87/87 107/107/107 106/106/106 
f 87/87/87 88/88/88 108/108/108 107/107/107 
f 88/88/88 89/89/89 109/109/109 108/108/108 
f 89/89/89 90/90/90 110/110/110 109/109/109 
f 90/90/90 91/91/91 111/111/111 110/110/110 
f 91/91/91 92/92/92 112/112/112 111/111/111 
f 92/92/92 93/93/93 113/113/113 112/112/112 
f 93/93/93 94/94/94 114/114/114 113/113/113 
f 94/94/94 95/95/95 115/115/115 114/114/114 
f 95/95/95 96/96/96 116/116/116 115/115/115 
f 96/96/96 97/97/97 117/117/117 116/116/116 
f 97/97/97 98/98/98 118/118/118 117/117/117 
f 98/98/98 99/99/99 119/119/119 118/118/118 
f 99/99/99 100/100/100 120/120/120 119/119/119 
f 100/100/100 82/82/82 102/102/102 120/120/120 
f 102/102/102 101/101/101 121/121/121 122/122/122 
f 101/101/101 103/103/103 123/123/123 121/121/121 
f 103/103/103 104/104/104 124/124/124 123/123/123 
f 104/104/104 105/105/105 125/125/125 124/124/124 
f 105/105/105 106/106/106 126/126/126 125/125/125 
f 106/106/106 107/107/107 127/127/127 126/126/126 
f 107/107/107 108/108/108 128/128/128 127/127/127 
f 108/108/108 109/109/109 129/129/129 128/128/128 
f 109/109/109 110/110/110 130/130/130 129/129/129 
f 110/110/110 111/111/111 131/131/131 130/130/130 
f 111/111/111 112/112/112 132/132/132 131/131/131 
f 112/112/112 113/113/113 133/133/133 132/132/132 
f 113/113/113 114/114/114 134/134/134 133/133/133 
f 114/114/114 115/115/115 135/135/135 134/134/134 
f 115/115/115 116/116/116 136/136/136 135/135/135 
f 116/116/116 117/117/117 137/137/137 136/136/136 
f 117/117/117 118/118/118 138/138/138 137/137/137 
f 118/118/118 119/119/119 139/139/139 138/138/138 
f 119/119/119 120/120/120 140/140/140 139/139/139 
f 120/120/120 102/102/102 122/122/122 140/140/140 
f 122/122/122 121/121/121 141/141/141 142/142/142 
f 121/121/121 123/123/123 143/143/143 141/141/141 
f 123/123/123 124/124/124 144/144/144 143/143/143 
f 124/124/124 125/125/125 145/145/145 144/144/144 
f 125/125/125 126/126/126 146/146/146 145/145/145 
f 126/126/126 127/127/127 147/147/147 146/146/146 
f 127/127/127 128/128/128 148/148/148 147/147/147 
f 128/128/128 129/129/129 149/149/149 148/148/148 
f 129/129/129 130/130/130 150/150/150 149/149/149 
f 130/130/130 131/131/131 151/151/151 150/150/150 
f 131/131/131 132/132/132 152/152/152 151/151/151 
f 132/132/132 133/133/133 153/153/153 152/152/152 
f 133/133/133 134/134/134 154/154/154 153/153/153 
f 134/134/134 135/135/135 155/155/155 154/154/154 
f 135/135/135 136/136/136 156/156/156 155/155/155 
f 136/136/136 137/137/137 157/157/157 156/156/156 
f 137/137/137 138/138/138 158/158/158 157/157/157 
f 138/138/138 139/139/139 159/159/159 158/158/158 
f 139/139/139 140/140/140 160/160/160 159/159/159 
f 140/140/140 122/122/122 142/142/142 160/160/160 
f 2/2/2 1/1/1 161/161/161 
f 5/5/5 2/2/2 161/161/161 
f 7/7/7 5/5/5 161/161/161 
f 9/9/9 7/7/7 161/161/161 
f 11/11/11 9/9/9 161/161/161 
f 13/13/13 11/11/11 161/161/161 
f 15/15/15 13/13/13 161/161/161 
f 17/17/17 15/15/15 161/161/161 
f 19/19/19 17/17/17 161/161/161 
f 21/21/21 19/19/19 161/161/161 
f 23/23/23 21/21/21 161/161/161 
f 25/25/25 23/23/23 161/161/161 
f 27/27/27 25/25/25 161/161/161 
f 29/29/29 27/27/27 161/161/161 
f 31/31/31 29/29/29 161/161/161 
f 33/33/33 31/31/31 161/161/161 
f 35/35/35 33/33/33 161/161/161 
f 37/37/37 35/35/35 161/161/161 
f 39/39/39 37/37/37 161/161/161 
f 1/1/1 39/39/39 161/161/161 
f 142/142/142 141/141/141 162/162/162 
f 141/141/141 143/143/143 162/162/162 
f 143/143/143 144/144/144 162/162/162 
f 144/144/144 145/145/145 162/162/162 
f 145/145/145 146/146/146 162/162/162 
f 146/146/146 147/147/147 162/162/162 
f 147/147/147 148/148/148 162/162/162 
f 148/148/148 149/149/149 162/162/162 
f 149/149/149 150/150/150 162/162/162 
f 150/150/150 151/151/151 162/162/162 
f 151/151/151 152/152/152 162/162/162 
f 152/152/152 153/153/153 162/162/162 
f 153/153/153 154/154/154 162/162/162 
f 154/154/154 155/155/155 162/162/162 
f 155/155/155 156/156/156 162/162/162 
f 156/156/156 157/157/157 162/162/162 
f 157/157/157 158/158/158 162/162/162 
f 158/158/158 159/159/159 162/162/162 
f 159/159/159 160/160/160 162/162/162 
f 160/160/160 142/142/142 162/162/162 
# 140 polygons - 40 triangles

